<?xml version="1.0" encoding="UTF-8" standalone="no"?>
<!DOCTYPE svg PUBLIC "-//W3C//DTD SVG 1.1//EN" "http://www.w3.org/Graphics/SVG/1.1/DTD/svg11.dtd">
<svg xmlns="http://www.w3.org/2000/svg" version="1.1" xmlns:xl="http://www.w3.org/1999/xlink" xmlns:dc="http://purl.org/dc/elements/1.1/" viewBox="0 0 100 100" width="100" height="100">
  <defs/>
  <metadata> Produced by OmniGraffle 7.9 
    <dc:date>2021-01-27 20:59:46 +0000</dc:date>
  </metadata>
  <g id="Canvas_1" fill-opacity="1" fill="none" stroke-dasharray="none" stroke="none" stroke-opacity="1">
    <title>Canvas 1</title>
    <g id="Canvas_1: Layer 1">
      <title>Layer 1</title>
      <g id="Group_2">
        <title>Canvas_1</title>
        <g id="Group_8">
          <title>Graphic_2</title>
          <g id="Graphic_9">
            <path d="M 78.66536 51.391103 C 72.39315 40.22736 59.544854 37.277863 59.544854 37.277863 C 62.19405 35.91604 64.68213 34.073435 66.40237 31.609315 C 67.91715 29.440397 68.33931 27.271992 68.33166 24.630443 C 68.325034 22.152048 67.68211 20.300265 66.28919 18.263403 C 64.51387 15.66774 61.97175 13.681353 59.05183 12.526532 C 57.62525 11.962636 56.12985 11.653664 54.6003 11.56291 C 52.642965 11.44666 50.66015 11.527223 48.69976 11.52671 C 46.721536 11.525693 44.719344 11.525693 42.75692 11.525693 L 30.27826 11.525693 L 24.23803 11.525693 L 24.23803 12.485237 L 27.036613 12.485237 C 30.554603 12.644818 30.95432 16.242851 30.95432 16.242851 L 30.95432 40.949827 C 37.80165 37.516477 43.188245 37.75152 43.188245 37.75152 L 43.188245 12.385304 C 45.93942 12.387339 47.278295 12.385304 47.278295 12.385304 C 47.98852 12.384286 48.6034 12.362866 49.311584 12.367969 C 50.45672 12.376124 51.58706 13.20056 52.42679 13.917925 C 53.14823 14.53434 53.74476 15.28535 54.22147 16.10417 C 56.04573 19.241805 56.264966 23.18501 56.04063 26.726448 C 55.93254 28.437003 55.60929 30.155728 54.91385 31.73015 C 53.3848 35.192056 49.34422 37.14785 45.792584 37.761717 C 57.87202 37.956985 63.38098 42.8995 67.799886 49.794245 C 71.614095 55.74423 72.24377 63.850384 69.736814 70.52539 C 68.71251 73.25463 67.36803 75.87222 65.645235 78.22825 C 64.28138 80.0938 62.681464 81.78855 60.870976 83.22633 C 59.44441 84.35872 57.890375 85.3305 56.24304 86.10752 C 54.006825 87.1624 51.634475 87.92718 49.134155 87.8553 C 47.78764 87.81552 46.411546 87.5713 45.10887 87.22817 C 36.512233 84.96646 32.025526 74.43494 31.76244 66.19623 C 31.472332 57.127974 36.49184 44.252145 46.867354 43.28648 C 49.75771 43.01728 55.70871 44.22767 54.43051 48.403365 C 54.155704 49.30173 53.598945 50.081804 53.09827 50.87615 C 50.54135 54.933054 48.91798 61.57134 54.34282 64.11959 C 58.54146 66.09221 63.73482 64.82573 65.20473 59.99743 C 67.158486 53.576844 59.24913 47.06296 59.24913 47.06296 C 53.945135 42.41055 46.03527 42.50335 46.03527 42.50335 C 43.486515 42.53343 40.865866 42.667006 38.36045 43.166665 C 35.553714 43.72597 32.879017 44.852747 30.431215 46.32368 C 25.346454 49.37821 20.233648 53.917426 18.941668 59.96276 C 18.877943 60.26153 18.838178 60.564896 18.780052 60.86469 C 17.737405 66.251284 19.414307 70.91848 19.414307 70.91848 C 19.519343 71.21011 19.645783 71.49513 19.774267 71.77707 C 20.125552 72.55001 20.52579 73.30103 20.957638 74.03114 C 21.60362 75.123755 22.325567 76.1715 23.111768 77.16775 C 24.10241 78.42403 25.197575 79.59823 26.38247 80.67401 C 27.77794 81.941 29.29832 83.06929 30.916086 84.03751 C 32.788264 85.15817 34.787403 86.06214 36.85945 86.74586 C 44.648474 89.31602 53.22012 88.87755 61.02801 86.62501 C 66.78935 84.9629 72.15913 82.85874 76.14159 78.12321 C 82.2583 70.84914 83.33715 59.706815 78.66536 51.391103 Z" fill="white"/>
          </g>
        </g>
      </g>
    </g>
  </g>
</svg>
